<?xml version="1.0" encoding="UTF-8" standalone="no"?>
<svg
   xmlns:dc="http://purl.org/dc/elements/1.1/"
   xmlns:cc="http://creativecommons.org/ns#"
   xmlns:rdf="http://www.w3.org/1999/02/22-rdf-syntax-ns#"
   xmlns:svg="http://www.w3.org/2000/svg"
   xmlns="http://www.w3.org/2000/svg"
   viewBox="0 0 800 703.38666"
   height="703.38666"
   width="800"
   xml:space="preserve"
   id="svg2"
   version="1.1"><metadata
     id="metadata8"><rdf:RDF><cc:Work
         rdf:about=""><dc:format>image/svg+xml</dc:format><dc:type
           rdf:resource="http://purl.org/dc/dcmitype/StillImage" /></cc:Work></rdf:RDF></metadata><defs
     id="defs6" /><g
     transform="matrix(1.3333333,0,0,-1.3333333,0,703.38667)"
     id="g10"><g
       transform="scale(0.1)"
       id="g12"><path
         id="path14"
         style="fill:#FFFFFF;fill-opacity:1;fill-rule:nonzero;stroke:none"
         d="m 1314.84,830.809 c -34.21,9.203 -69.41,-11.137 -78.56,-45.348 -9.18,-34.25 11.15,-69.383 45.37,-78.582 34.21,-9.199 69.39,11.133 78.58,45.391 9.15,34.21 -11.15,69.39 -45.39,78.539 z m 865.2,-182.969 c -76.4,0 -120.75,-62.231 -120.75,-62.231 l -14.11,38.551 c -2.33,6.289 -9.73,11.488 -16.45,11.488 h -36.65 c -10.14,0 -18.34,-8.226 -18.34,-18.347 V 238.352 c 0,-10.133 8.2,-18.352 18.34,-18.352 h 79.44 c 10.12,0 18.32,8.219 18.32,18.352 v 265.32 c 46.38,56.238 105.47,36.976 117.54,32.328 12.07,-4.648 21.07,1.059 24.6,9.102 3.55,8 20.93,47.32 27.34,61.859 6.39,14.519 -2.85,40.879 -79.28,40.879 z M 1663.69,311.691 c -33.23,0 -63.83,8.731 -88.44,23.489 v 157.23 c 19.09,31.078 51.56,51.539 88.44,51.539 58.79,0 106.43,-52.008 106.43,-116.109 0,-64.141 -47.64,-116.149 -106.43,-116.149 z m 21.59,336.149 c -54.67,0 -104.23,-23.731 -140.56,-62.27 l -0.02,0.039 -14.14,38.551 c -2.3,6.289 -9.7,11.488 -16.42,11.488 h -36.66 c -10.15,0 -18.33,-8.226 -18.33,-18.347 V 18.3398 C 1459.15,8.19141 1467.33,0 1477.48,0 h 79.45 c 10.12,0 18.32,8.19141 18.32,18.3398 V 226.109 c 33.69,-11.769 70.89,-18.3 110.03,-18.3 111.39,0 201.68,98.492 201.68,220.031 0,121.492 -90.29,220 -201.68,220 z m -347.31,-12.192 h -79.45 c -10.12,0 -18.33,-8.226 -18.33,-18.347 V 238.352 c 0,-10.133 8.21,-18.352 18.33,-18.352 h 79.45 c 10.12,0 18.35,8.219 18.35,18.352 v 378.949 c 0,10.121 -8.23,18.347 -18.35,18.347 z m -184.21,0 h -78.75 c -6.74,0 -13.91,-5.238 -15.98,-11.636 L 993.984,422.461 882.266,637.031 c -3.106,5.93 -11.153,10.809 -17.868,10.809 h -7.976 c -6.738,0 -14.785,-4.879 -17.887,-10.809 L 726.836,422.461 661.793,624.012 c -2.07,6.398 -9.27,11.636 -15.98,11.636 h -78.778 c -10.066,0 -15.789,-7.859 -12.687,-17.476 L 683.031,219.391 c 2.071,-6.391 9.27,-11.582 15.985,-11.582 h 11.703 c 6.715,0 14.765,4.871 17.867,10.8 L 860.398,471.801 992.242,218.609 c 3.102,-5.929 11.148,-10.8 17.858,-10.8 h 11.68 c 6.74,0 13.91,5.191 15.98,11.582 l 128.69,398.781 c 3.11,9.617 -2.6,17.476 -12.69,17.476 z M 2496.67,311.691 c -60.67,0 -110.01,52.09 -110.01,116.149 0,64.012 49.34,116.109 110.01,116.109 60.65,0 110,-52.097 110,-116.109 0,-64.059 -49.35,-116.149 -110,-116.149 z m 0,336.149 c -118.13,0 -213.94,-98.508 -213.94,-220 0,-121.539 95.81,-220.031 213.94,-220.031 118.12,0 213.91,98.492 213.91,220.031 0,121.492 -95.79,220 -213.91,220" /><path
         id="path16"
         style="fill:#FFFFFF;fill-opacity:1;fill-rule:nonzero;stroke:none"
         d="m 273.266,419.48 -111.164,-6.57 c -10.364,-0.551 -20.954,-2.34 -31.868,-5.351 -10.91,-2.989 -20.718,-7.368 -29.429,-13.118 -8.7112,-5.742 -15.8089,-13.261 -21.2659,-22.562 -5.4532,-9.32 -8.1602,-20.527 -8.1602,-33.649 0,-18.601 6.2774,-35.16 18.793,-49.66 12.5581,-14.488 33.5121,-21.738 62.9411,-21.738 15.813,0 31.2,2.738 46.184,8.199 14.949,5.481 27.898,13.957 38.808,25.449 12.52,12.579 21.543,27.071 26.958,43.5 5.457,16.411 8.203,33.348 8.203,50.879 z M 384.039,223.34 c -7.652,-3.828 -15.031,-6.418 -22.129,-7.789 -7.144,-1.36 -15.07,-2.063 -23.82,-2.063 -18.875,0 -33.703,6.16 -44.496,18.461 -10.828,12.321 -16.246,27.223 -16.246,44.742 h -1.61 c -12.008,-20.812 -29.863,-37.339 -53.605,-49.66 -23.695,-12.312 -50.301,-18.472 -79.77,-18.472 -23.972,0 -44.8513,3.691 -62.5857,11.089 C 62.0352,227.031 47.3242,236.73 35.5898,248.781 23.8555,260.82 14.9883,274.488 8.98438,289.809 2.98438,305.109 0,320.711 0,336.59 c 0,13.121 2.3125,27.09 6.94531,41.84 4.63279,14.781 12.67189,28.308 24.13279,40.64 11.4571,12.289 26.6016,22.828 45.4024,31.578 18.832,8.75 42.4145,13.961 70.7855,15.614 l 126,7.367 V 504 c 0,10.379 -1.215,21.332 -3.692,32.82 -2.469,11.512 -8.351,21.602 -17.656,30.371 -7.105,6.559 -16.012,11.758 -26.684,15.579 -10.629,3.832 -24.48,5.75 -41.433,5.75 -19.153,0 -34.731,-2.329 -46.774,-6.961 C 124.98,576.891 115.406,571 108.301,563.898 94.6484,550.219 87.7773,533.551 87.7773,513.852 H 19.6992 c 0.5117,19.136 3.961,35.687 10.2422,49.636 6.2774,13.953 14.9063,26.391 25.8594,37.344 14.2031,14.77 32.6836,25.859 55.4062,33.227 22.68,7.402 46.891,11.082 72.594,11.082 40.492,0 72.59,-7.532 96.254,-22.563 23.699,-15.047 40.535,-34.058 50.504,-57.027 8.312,-19.172 12.472,-40.5 12.472,-64.02 V 300.48 c 0,-10.941 2.043,-18.351 6.125,-22.14 4.121,-3.852 9.731,-5.762 16.836,-5.762 1.645,0 3.571,0 5.766,0 2.16,0 4.082,0.262 5.726,0.82 l 6.555,1.633 V 223.34" /><path
         id="path18"
         style="fill:#FFFFFF;fill-opacity:1;fill-rule:nonzero;stroke:none"
         d="m 3229.98,358.762 c -1.65,-22.461 -6.55,-42.153 -14.79,-59.102 -8.21,-16.969 -19.43,-32.289 -33.63,-45.949 -14.75,-14.242 -32.02,-25.313 -51.72,-33.242 -19.65,-7.93 -42.38,-11.91 -68.08,-11.91 -37.75,0 -68.83,7.543 -93.16,22.57 -24.36,15.051 -43.9,33.5 -58.66,55.402 -10.95,16.41 -19.42,36.098 -25.47,59.078 -6,22.969 -9.02,50.071 -9.02,81.243 0,31.199 3.02,58.269 9.02,81.25 6.05,22.976 14.52,42.679 25.47,59.089 14.76,21.86 34.3,40.34 58.66,55.387 24.33,15.031 55.1,22.563 92.34,22.563 24.6,0 46.89,-3.821 66.86,-11.469 19.97,-7.684 37.08,-18.633 51.28,-32.84 14.25,-13.684 25.59,-29.133 34.06,-46.371 8.48,-17.231 13.54,-37.34 15.19,-60.313 h -70.55 c -1.65,14.223 -5.1,26.672 -10.28,37.34 -5.22,10.672 -11.62,19.813 -19.27,27.481 -8.2,7.66 -18.04,13.82 -29.55,18.472 -11.49,4.649 -24.09,6.981 -37.74,6.981 -15.9,0 -29.55,-2.613 -41.05,-7.781 -11.5,-5.231 -21.9,-11.641 -31.19,-19.289 -16.41,-14.25 -27.47,-33.133 -33.24,-56.622 -5.73,-23.55 -8.59,-48.16 -8.59,-73.878 0,-25.723 2.86,-50.34 8.59,-73.852 5.77,-23.52 16.83,-42.41 33.24,-56.621 9.29,-7.668 19.69,-14.109 31.19,-19.277 11.5,-5.223 25.15,-7.821 41.05,-7.821 14.2,0 27.47,2.481 39.78,7.41 12.33,4.918 22.57,11.739 30.76,20.508 7.66,7.66 13.82,16.41 18.49,26.262 4.63,9.848 7.81,21.598 9.41,35.301 h 70.6" /><path
         id="path20"
         style="fill:#FFFFFF;fill-opacity:1;fill-rule:nonzero;stroke:none"
         d="m 3576.19,426.852 c 0,24.628 -2.74,48.429 -8.19,71.398 -5.5,22.98 -15.63,42.129 -30.38,57.449 -8.75,8.75 -19.3,15.852 -31.58,21.332 -12.33,5.469 -26.68,8.219 -43.09,8.219 -16.41,0 -30.76,-2.75 -43.09,-8.219 -12.32,-5.48 -22.84,-12.582 -31.59,-21.332 -14.78,-15.32 -24.91,-34.469 -30.37,-57.449 -5.49,-22.969 -8.19,-46.77 -8.19,-71.398 0,-24.622 2.7,-48.422 8.19,-71.403 5.46,-22.957 15.59,-42.109 30.37,-57.437 8.75,-8.75 19.27,-15.883 31.59,-21.321 12.33,-5.48 26.68,-8.211 43.09,-8.211 16.41,0 30.76,2.731 43.09,8.211 12.28,5.438 22.83,12.571 31.58,21.321 14.75,15.328 24.88,34.48 30.38,57.437 5.45,22.981 8.19,46.781 8.19,71.403 z m 71.38,0 c 0,-32.821 -4.08,-63.743 -12.28,-92.723 -8.2,-29.02 -23.82,-54.719 -46.77,-77.141 -15.35,-14.777 -33.55,-26.547 -54.58,-35.297 -21.08,-8.742 -44.74,-13.132 -70.99,-13.132 -26.25,0 -49.95,4.39 -70.99,13.132 -21.07,8.75 -39.27,20.52 -54.58,35.297 -22.96,22.422 -38.57,48.121 -46.77,77.141 -8.21,28.98 -12.32,59.902 -12.32,92.723 0,32.828 4.11,63.73 12.32,92.75 8.2,28.976 23.81,54.699 46.77,77.117 15.31,14.781 33.51,26.531 54.58,35.301 21.04,8.75 44.74,13.121 70.99,13.121 26.25,0 49.91,-4.371 70.99,-13.121 21.03,-8.77 39.23,-20.52 54.58,-35.301 22.95,-22.418 38.57,-48.141 46.77,-77.117 8.2,-29.02 12.28,-59.922 12.28,-92.75" /><path
         id="path22"
         style="fill:#FFFFFF;fill-opacity:1;fill-rule:nonzero;stroke:none"
         d="m 4223.2,219.23 v 264.25 c 0,14.77 -1.37,28.18 -4.12,40.219 -2.74,12.031 -7.26,22.281 -13.53,30.762 -6.28,8.48 -14.92,15.18 -25.86,20.121 -10.96,4.918 -24.61,7.367 -41.01,7.367 -13.14,0 -24.92,-2.449 -35.32,-7.367 -10.4,-4.941 -19.7,-11.781 -27.9,-20.531 -14.2,-14.223 -23.66,-31.313 -28.29,-51.289 -4.67,-19.973 -6.98,-40.903 -6.98,-62.782 V 219.23 h -69.77 v 264.25 c 0,14.77 -1.22,28.18 -3.69,40.219 -2.43,12.031 -6.83,22.281 -13.11,30.762 -6.32,8.48 -14.91,15.18 -25.86,20.121 -10.94,4.918 -24.63,7.367 -41.04,7.367 -14.76,0 -28.02,-3.41 -39.79,-10.25 -11.77,-6.84 -22.06,-15.73 -30.77,-26.679 -10.39,-13.122 -17.65,-29.551 -21.78,-49.219 -4.08,-19.699 -6.11,-38.309 -6.11,-55.821 V 219.23 h -69.77 v 415.239 h 60.74 l 6.55,-59.071 c 10.95,23.5 27.2,41.024 48.82,52.524 21.62,11.476 44.18,17.219 67.72,17.219 31.17,0 57.3,-6.711 78.37,-20.11 21.03,-13.39 36.21,-32.949 45.52,-58.66 5.49,13.129 12.74,24.617 21.78,34.461 9.02,9.84 19.27,18.059 30.76,24.609 11.49,6.579 23.66,11.508 36.53,14.778 12.84,3.281 25.82,4.922 38.97,4.922 47.05,0 81.93,-13.942 104.61,-41.84 22.72,-27.903 34.06,-64.832 34.06,-110.789 V 219.23 h -69.73" /><path
         id="path24"
         style="fill:#FFFFFF;fill-opacity:1;fill-rule:nonzero;stroke:none"
         d="m 4669.63,426.031 c 0,19.149 -1.81,38.16 -5.33,57.028 -3.58,18.882 -9.74,35.972 -18.49,51.293 -8.75,15.32 -20.79,27.628 -36.1,36.937 -15.31,9.281 -34.45,13.961 -57.44,13.961 -15.31,0 -28.3,-2.621 -38.97,-7.809 -10.67,-5.203 -20.13,-11.609 -28.33,-19.293 -17.5,-15.316 -29.55,-34.589 -36.1,-57.839 -6.56,-23.258 -9.85,-48.008 -9.85,-74.278 0,-26.25 3.29,-51.011 9.85,-74.261 6.55,-23.27 18.6,-42.54 36.1,-57.86 8.2,-7.668 17.66,-14.09 28.33,-19.289 10.67,-5.191 23.66,-7.789 38.97,-7.789 22.99,0 42.13,4.648 57.44,13.957 15.31,9.289 27.35,21.602 36.1,36.922 8.75,15.32 14.91,32.41 18.49,51.289 3.52,18.871 5.33,37.879 5.33,57.031 z m 71.38,0.821 c 0,-36.09 -5.34,-69.633 -16.01,-100.532 -10.67,-30.89 -26.37,-56.48 -47.17,-76.711 -13.69,-12.589 -29.98,-22.718 -48.86,-30.379 -18.86,-7.64 -40.6,-11.492 -65.21,-11.492 -11.49,0 -23.11,1.383 -34.88,4.121 -11.77,2.731 -23.12,6.551 -34.07,11.481 -10.94,4.93 -20.9,11.082 -29.94,18.461 -9.02,7.39 -16.28,15.719 -21.74,25.031 V 41.1719 h -69.76 V 633.672 h 61.53 l 4.94,-54.172 c 12.01,20.781 29.83,36.781 53.33,48.012 23.54,11.199 47.04,16.808 70.59,16.808 25.7,0 48.27,-3.961 67.7,-11.89 19.42,-7.942 35.97,-19.008 49.62,-33.239 19.71,-20.242 34.61,-45.421 44.74,-75.492 10.13,-30.097 15.19,-62.379 15.19,-96.847" /><path
         id="path26"
         style="fill:#FFFFFF;fill-opacity:1;fill-rule:nonzero;stroke:none"
         d="m 5065.05,419.48 -111.16,-6.57 c -10.36,-0.551 -20.96,-2.34 -31.87,-5.351 -10.91,-2.989 -20.71,-7.368 -29.43,-13.118 -8.71,-5.742 -15.81,-13.261 -21.26,-22.562 -5.46,-9.32 -8.17,-20.527 -8.17,-33.649 0,-18.601 6.28,-35.16 18.8,-49.66 12.55,-14.488 33.51,-21.738 62.94,-21.738 15.81,0 31.19,2.738 46.18,8.199 14.96,5.481 27.9,13.957 38.81,25.449 12.52,12.579 21.55,27.071 26.96,43.5 5.45,16.411 8.2,33.348 8.2,50.879 z m 110.78,-196.14 c -7.66,-3.828 -15.03,-6.418 -22.14,-7.789 -7.14,-1.36 -15.07,-2.063 -23.82,-2.063 -18.86,0 -33.7,6.16 -44.49,18.461 -10.83,12.321 -16.25,27.223 -16.25,44.742 h -1.61 c -12,-20.812 -29.85,-37.339 -53.59,-49.66 -23.71,-12.312 -50.32,-18.472 -79.78,-18.472 -23.97,0 -44.85,3.691 -62.59,11.089 -17.73,7.383 -32.45,17.082 -44.19,29.133 -11.73,12.039 -20.59,25.707 -26.6,41.028 -6,15.3 -8.98,30.902 -8.98,46.781 0,13.121 2.31,27.09 6.94,41.84 4.63,14.781 12.68,28.308 24.13,40.64 11.47,12.289 26.61,22.828 45.4,31.578 18.84,8.75 42.42,13.961 70.79,15.614 l 126,7.367 V 504 c 0,10.379 -1.21,21.332 -3.68,32.82 -2.48,11.512 -8.36,21.602 -17.67,30.371 -7.1,6.559 -16,11.758 -26.68,15.579 -10.63,3.832 -24.48,5.75 -41.43,5.75 -19.15,0 -34.73,-2.329 -46.78,-6.961 -12.04,-4.668 -21.62,-10.559 -28.72,-17.661 -13.65,-13.679 -20.53,-30.347 -20.53,-50.046 h -68.08 c 0.51,19.136 3.97,35.687 10.25,49.636 6.28,13.953 14.91,26.391 25.86,37.344 14.2,14.77 32.68,25.859 55.4,33.227 22.68,7.402 46.89,11.082 72.6,11.082 40.49,0 72.58,-7.532 96.25,-22.563 23.7,-15.047 40.53,-34.058 50.5,-57.027 8.32,-19.172 12.48,-40.5 12.48,-64.02 V 300.48 c 0,-10.941 2.04,-18.351 6.12,-22.14 4.12,-3.852 9.73,-5.762 16.83,-5.762 1.65,0 3.58,0 5.77,0 2.16,0 4.09,0.262 5.73,0.82 l 6.56,1.633 V 223.34" /><path
         id="path28"
         style="fill:#FFFFFF;fill-opacity:1;fill-rule:nonzero;stroke:none"
         d="m 5502.79,219.23 v 263.418 c 0,31.204 -6.98,55.532 -20.91,73.051 -13.97,17.5 -37.36,26.25 -70.2,26.25 -20.22,0 -38.03,-5.89 -53.33,-17.64 -15.3,-11.778 -27.63,-27.207 -36.92,-46.368 -7.1,-15.32 -11.34,-32.82 -12.72,-52.511 -1.38,-19.7 -2.04,-37.481 -2.04,-53.34 V 219.23 h -69.77 v 415.239 h 60.75 l 5.73,-62.348 c 5.45,12.027 12.83,22.559 22.17,31.59 9.25,9.019 19.69,16.539 31.15,22.559 11.5,6.019 23.54,10.679 36.1,13.949 12.6,3.281 24.64,4.922 36.15,4.922 47.59,0 83.41,-13.422 107.47,-40.192 24.1,-26.828 36.14,-64.301 36.14,-112.437 V 219.23 h -69.77" /><path
         id="path30"
         style="fill:#FFFFFF;fill-opacity:1;fill-rule:nonzero;stroke:none"
         d="m 5812.86,133.891 c -9.8,-26.801 -23.22,-48.2816 -40.17,-64.4105 -17,-16.1407 -41.05,-24.211 -72.25,-24.211 -17.5,0 -31.7,1.1094 -42.65,3.3086 -10.94,2.2422 -17.78,3.8907 -20.52,4.9922 v 61.4417 c 4.35,-1.09 9.3,-2.172 14.75,-3.274 4.4,-1.097 9.45,-1.918 15.19,-2.476 5.77,-0.524 12.17,-0.821 19.3,-0.821 14.76,0 27.36,3.02 37.75,9.028 10.4,6 18.6,16.929 24.61,32.761 l 26.25,69.661 -165.75,414.578 h 78.79 l 122.27,-327.43 116.5,327.43 H 6000 L 5812.86,133.891" /><path
         id="path32"
         style="fill:#FFFFFF;fill-opacity:1;fill-rule:nonzero;stroke:none"
         d="M 5869.23,5197.16 H 5859 v -34.71 c 11.06,0 18.52,0.29 22.46,0.87 3.94,0.6 6.84,2.22 8.71,4.87 1.9,2.64 2.84,6.65 2.84,12.06 0,11.28 -7.95,16.91 -23.78,16.91 z m 34.9,-116.13 -33.51,56.92 H 5859 v -56.92 h -28.55 v 141.88 h 38.78 c 34.9,0 52.32,-13.81 52.32,-41.42 0,-17.04 -7.81,-29.74 -23.42,-38.08 l 37.73,-62.38 z m -122.51,69.43 c 0,-25.96 9.23,-48.18 27.69,-66.61 18.45,-18.46 40.63,-27.69 66.63,-27.69 25.92,0 48.1,9.21 66.48,27.6 18.39,18.38 27.58,40.63 27.58,66.7 0,25.97 -9.19,48.15 -27.58,66.54 -18.38,18.39 -40.56,27.57 -66.48,27.57 -26.14,0 -48.35,-9.18 -66.74,-27.57 -18.39,-18.39 -27.58,-40.57 -27.58,-66.54 z m -29.96,0 c 0,34.31 12.13,63.57 36.39,87.77 24.25,24.21 53.53,36.31 87.89,36.31 34.27,0 63.51,-12.1 87.74,-36.31 24.22,-24.2 36.32,-53.46 36.32,-87.77 0,-34.3 -12.1,-63.59 -36.32,-87.85 -24.23,-24.26 -53.47,-36.41 -87.74,-36.41 -34.36,0 -63.64,12.15 -87.89,36.41 -24.26,24.26 -36.39,53.55 -36.39,87.85" /><path
         id="path34"
         style="fill:#FFFFFF;fill-opacity:1;fill-rule:nonzero;stroke:none"
         d="M 467.77,1970.86 294.285,1477.88 h 332.461 z m 279.742,-841.52 -77.18,236.18 H 253.754 L 171.211,1129.34 H 0 l 454.758,1135.03 h 40.523 L 917.191,1129.34 H 747.512" /><path
         id="path36"
         style="fill:#FFFFFF;fill-opacity:1;fill-rule:nonzero;stroke:none"
         d="m 1283.34,2118.89 v -416.61 c 65.2,-5.14 99.59,-7.69 103.19,-7.69 190.98,0 286.47,75.2 286.47,225.62 0,137.59 -101.93,206.39 -305.74,206.39 -20.54,0 -48.5,-2.57 -83.92,-7.71 z m 0,-555.22 v -434.33 h -154.02 v 1128.17 c 116.54,5.13 186.88,7.7 211,7.7 327.54,0 491.31,-109.61 491.31,-328.83 0,-253.61 -144.77,-380.41 -434.32,-380.41 -17.46,0 -55.44,2.56 -113.97,7.7" /><path
         id="path38"
         style="fill:#FFFFFF;fill-opacity:1;fill-rule:nonzero;stroke:none"
         d="m 2253.33,2118.49 v -416.44 c 65.17,-5.13 99.56,-7.7 103.14,-7.7 190.91,0 286.36,75.18 286.36,225.54 0,137.53 -101.89,206.3 -305.62,206.3 -20.53,0 -48.47,-2.57 -83.88,-7.7 z m 0,-555 v -434.15 h -153.95 v 1127.71 c 116.49,5.12 186.79,7.69 210.91,7.69 327.41,0 491.11,-109.56 491.11,-328.69 0,-253.51 -144.72,-380.25 -434.15,-380.25 -17.45,0 -55.42,2.56 -113.92,7.69" /><path
         id="path40"
         style="fill:#FFFFFF;fill-opacity:1;fill-rule:nonzero;stroke:none"
         d="m 3082.9,1129.34 v 1137.07 h 152.86 V 1129.34 H 3082.9" /><path
         id="path42"
         style="fill:#FFFFFF;fill-opacity:1;fill-rule:nonzero;stroke:none"
         d="m 3748.18,2116.23 v -365.57 c 36.87,-5.13 72.71,-7.69 107.52,-7.69 92.17,0 159.24,14.86 201.22,44.55 41.99,29.69 62.98,82.69 62.98,158.97 0,62.98 -22.53,108.29 -67.59,135.94 -45.05,27.64 -116.22,41.47 -213.5,41.47 -15.36,0 -45.57,-2.56 -90.63,-7.67 z m 463.09,-986.89 -300.26,483.08 c -34.31,0 -88.58,2.56 -162.83,7.67 v -490.75 h -153.59 v 1125.12 c 5.63,0 45.45,1.91 119.41,5.77 74.01,3.82 127.88,5.75 161.67,5.75 270.34,0 405.51,-107.52 405.51,-322.56 0,-70.65 -21.79,-134.28 -65.26,-190.86 -43.56,-56.57 -95.24,-91.76 -155.18,-105.58 l 326.42,-517.64 h -175.89" /><path
         id="path44"
         style="fill:#FFFFFF;fill-opacity:1;fill-rule:nonzero;stroke:none"
         d="M 4623.74,1129.34 V 2265.98 H 4776.6 V 1129.34 h -152.86" /><path
         id="path46"
         style="fill:#FFFFFF;fill-opacity:1;fill-rule:nonzero;stroke:none"
         d="m 5242.36,1706.95 c 0,-126.02 24.89,-231.29 74.63,-315.8 49.78,-84.52 119.9,-126.78 210.42,-126.78 102.52,0 180.65,38.76 234.43,116.27 53.75,77.52 80.63,186.29 80.63,326.31 0,283.06 -105.02,424.58 -315.06,424.58 -93.02,0 -163.8,-38.01 -212.3,-114.02 -48.52,-76.01 -72.75,-179.54 -72.75,-310.56 z m -157.53,0 c 0,159.03 39.9,292.06 119.64,399.07 79.78,107.02 187.41,160.54 322.94,160.54 152.53,0 269.44,-49.26 350.69,-147.79 81.28,-98.51 121.9,-235.79 121.9,-411.82 0,-180.53 -40.78,-321.94 -122.26,-424.21 -81.55,-102.27 -198.3,-153.4 -350.33,-153.4 -138.52,0 -246.93,54.02 -325.17,162.03 -78.28,108.02 -117.41,246.56 -117.41,415.58" /><path
         id="path48"
         style="fill:#FFFFFF;fill-opacity:1;fill-rule:nonzero;stroke:none"
         d="M 1462.69,4473.75 C 1343.78,4340.74 1229.62,4192.96 1120.73,4031.34 882.117,4384.77 668.301,4803.72 485.582,5275.4 h 568.578 c 48.51,-115.48 99.39,-227.4 152.39,-335.77 81.73,-167.02 167.29,-322.58 256.14,-465.88" /><path
         id="path50"
         style="fill:#FFFFFF;fill-opacity:1;fill-rule:nonzero;stroke:none"
         d="m 5514.41,5275.4 c -182.7,-471.68 -396.4,-890.63 -635.01,-1244.06 -108.88,-161.49 -223.05,-309.26 -341.83,-442.15 -61.95,-69.47 -125.24,-134.86 -189.7,-195.89 -409.72,-388.9 -866.37,-605.88 -1347.8,-605.88 -481.44,0 -938.09,216.98 -1347.81,605.88 97.42,162.67 199.45,310.19 304.52,440.43 334.45,-337.47 691.7,-519 1043.29,-519 351.58,0 708.84,181.53 1043.28,519 60.64,60.91 120.22,126.82 179.02,197.74 108.5,130.91 213.83,278.55 315.07,442.16 88.85,143.42 174.41,298.98 256.14,466 52.99,108.37 103.88,220.29 152.4,335.77 h 568.43" /><path
         id="path52"
         style="fill:#FFFFFF;fill-opacity:1;fill-rule:nonzero;stroke:none"
         d="m 4347.87,4669.65 c -97.42,-162.67 -199.45,-310.19 -304.52,-440.44 -334.44,337.35 -691.7,518.88 -1043.28,518.88 -351.59,0 -708.84,-181.53 -1043.29,-518.88 -60.64,-60.9 -120.23,-126.81 -179.02,-197.74 -108.49,-130.9 -213.96,-278.68 -315.2,-442.28 -88.72,-143.3 -174.28,-298.85 -256.01,-465.88 -53.13,-108.49 -104.01,-220.68 -152.65,-336.29 H 485.453 c 182.711,471.81 396.539,890.89 635.277,1244.32 108.89,161.62 223.05,309.4 341.96,442.41 61.83,69.48 125.11,134.86 189.57,195.9 409.72,388.76 866.37,605.75 1347.81,605.75 481.43,0 938.08,-216.99 1347.8,-605.75" /><path
         id="path54"
         style="fill:#FFFFFF;fill-opacity:1;fill-rule:nonzero;stroke:none"
         d="m 5514.55,2787.02 h -568.31 c -48.64,115.61 -99.53,227.8 -152.66,336.29 -81.73,167.03 -167.29,322.58 -256.01,465.88 118.78,132.89 232.95,280.66 341.83,442.15 238.61,-353.43 452.44,-772.51 635.15,-1244.32" /></g></g></svg>
