<svg xmlns="http://www.w3.org/2000/svg" xmlns:xlink="http://www.w3.org/1999/xlink" id="Layer_1" x="0px" y="0px" width="512px" height="512px" viewBox="0 0 512 512" xml:space="preserve"> <rect x="331" y="451" display="none" fill="#FFFFFF" width="59" height="46"></rect> <rect x="160" y="362" display="none" fill="#FFFFFF" width="82" height="52"></rect> <g display="none"> <path display="inline" fill="#FFFFFF" d="M255.998,440.263c-101.569,0-184.198-82.63-184.198-184.188 C71.8,154.51,154.429,71.88,255.998,71.88c101.564,0,184.193,82.629,184.193,184.194 C440.191,357.633,357.562,440.263,255.998,440.263z M255.998,81.857c-96.067,0-174.216,78.153-174.216,174.216 c0,96.061,78.149,174.212,174.216,174.212c96.061,0,174.207-78.151,174.207-174.212C430.205,160.01,352.059,81.857,255.998,81.857z "></path> <g display="inline"> <path fill="#FFFFFF" d="M76.158,182.135c40.855,0,73.953,33.091,73.953,73.938c-0.013,40.829-33.098,73.934-73.953,73.934 c-40.828,0-73.928-33.116-73.923-73.934C2.216,215.227,35.331,182.135,76.158,182.135z"></path> <path fill="#FFFFFF" d="M435.832,182.135c40.838,0,73.938,33.091,73.934,73.938c0,40.829-33.096,73.93-73.938,73.934 c-40.842,0-73.949-33.104-73.941-73.934C361.885,215.227,394.984,182.135,435.832,182.135z"></path> <path fill="#FFFFFF" d="M102.037,374.839c20.421-35.364,65.643-47.483,101.02-27.057c35.367,20.405,47.461,65.635,27.053,101.003 c-20.419,35.358-65.654,47.472-100.995,27.049C93.733,455.428,81.63,410.221,102.037,374.839z"></path> <path fill="#FFFFFF" d="M281.879,63.369c20.432-35.385,65.645-47.493,101.002-27.059c35.357,20.398,47.473,65.618,27.066,100.995 c-20.424,35.385-65.645,47.474-101.008,27.059C273.584,143.941,261.455,98.742,281.879,63.369z"></path> <path fill="#FFFFFF" d="M281.879,448.79c-20.424-35.369-8.295-80.589,27.062-101.008c35.363-20.411,80.584-8.3,101.02,27.061 c20.416,35.378,8.279,80.593-27.09,100.995C347.514,496.274,302.311,484.146,281.879,448.79z"></path> <path fill="#FFFFFF" d="M102.053,137.306c-20.436-35.377-8.303-80.591,27.074-101.004C164.468,15.887,209.69,28,230.105,63.369 c20.44,35.358,8.306,80.589-27.048,100.995C167.688,184.79,122.472,172.67,102.053,137.306z"></path> </g> <g display="inline"> <path fill="#FFFFFF" d="M166.01,357.427c11.097,0,20.077,8.999,20.077,20.077c0,11.1-8.98,20.086-20.077,20.086 c-11.106,0-20.086-8.986-20.086-20.086C145.923,366.426,154.904,357.427,166.01,357.427z"></path> <path fill="#FFFFFF" d="M201.707,454.989v-28.398c0-12.255-10.015-22.304-22.292-22.304h-26.787 c-12.295,0-22.317,10.049-22.317,22.304v28.398H201.707z"></path> </g> <g display="inline"> <path fill="#FFFFFF" d="M345.957,357.427c11.107,0,20.086,8.999,20.086,20.077c0,11.1-8.979,20.086-20.086,20.086 c-11.096,0-20.074-8.986-20.074-20.086C325.883,366.426,334.861,357.427,345.957,357.427z"></path> <path fill="#FFFFFF" d="M381.668,454.989v-28.398c0-12.255-10.021-22.304-22.293-22.304h-26.787 c-12.287,0-22.328,10.049-22.328,22.304v28.398H381.668z"></path> </g> <g display="inline"> <path fill="#FFFFFF" d="M435.697,201.555c11.098,0,20.07,9.008,20.07,20.08c0,11.104-8.975,20.082-20.07,20.082 c-11.109,0-20.086-8.978-20.086-20.082C415.611,210.562,424.588,201.555,435.697,201.555z"></path> <path fill="#FFFFFF" d="M471.395,299.117v-28.398c0-12.261-10.02-22.306-22.285-22.306h-26.791 c-12.289,0-22.322,10.045-22.322,22.306v28.398H471.395z"></path> </g> <g display="inline"> <path fill="#FFFFFF" d="M76.293,201.555c11.097,0,20.077,9.008,20.077,20.08c0,11.104-8.98,20.082-20.077,20.082 c-11.11,0-20.074-8.978-20.074-20.082C56.22,210.562,65.183,201.555,76.293,201.555z"></path> <path fill="#FFFFFF" d="M111.993,299.117v-28.398c0-12.261-10.011-22.306-22.289-22.306H62.915 c-12.289,0-22.319,10.045-22.319,22.306v28.398H111.993z"></path> </g> <g display="inline"> <path fill="#FFFFFF" d="M166.01,45.687c11.097,0,20.077,8.995,20.077,20.08c0,11.093-8.98,20.082-20.077,20.082 c-11.106,0-20.086-8.989-20.086-20.082C145.923,54.682,154.904,45.687,166.01,45.687z"></path> <path fill="#FFFFFF" d="M201.707,143.25v-28.398c0-12.255-10.015-22.304-22.292-22.304h-26.787 c-12.295,0-22.317,10.049-22.317,22.304v28.398H201.707z"></path> </g> <g display="inline"> <path fill="#FFFFFF" d="M345.957,45.687c11.107,0,20.086,8.995,20.086,20.08c0,11.093-8.979,20.082-20.086,20.082 c-11.096,0-20.074-8.989-20.074-20.082C325.883,54.682,334.861,45.687,345.957,45.687z"></path> <path fill="#FFFFFF" d="M381.668,143.25v-28.398c0-12.255-10.021-22.304-22.293-22.304h-26.787 c-12.287,0-22.328,10.049-22.328,22.304v28.398H381.668z"></path> </g> </g> <g display="none"> <rect x="63.75" y="57.918" display="inline" fill="#FFFFFF" width="204.874" height="133.162"></rect> <path display="inline" fill="#FFFFFF" d="M60.838,55.803v139.8h211.823v-139.8H60.838z M257.241,64.278l-90.496,77.044 l-90.48-77.044H257.241z M69.314,69.484l63.64,54.176l-63.64,59.895V69.484z M77.879,187.13l61.564-57.94l27.302,23.239 l27.312-23.244l61.564,57.945H77.879z M264.186,183.555l-63.635-59.895l63.635-54.176V183.555z"></path> <rect x="194.355" y="166.152" display="inline" fill="#FFFFFF" width="204.864" height="133.168"></rect> <path display="inline" fill="#FFFFFF" d="M191.445,164.044v139.797h211.824V164.044H191.445z M387.848,172.518l-90.494,77.045 l-90.485-77.045H387.848z M199.916,177.724l63.641,54.176l-63.641,59.896V177.724L199.916,177.724z M208.485,295.369l61.56-57.94 l27.309,23.239l27.312-23.244l61.564,57.945H208.485z M394.794,291.796L331.152,231.9l63.642-54.176V291.796z"></path> <rect x="299.773" y="273.725" display="inline" fill="#FFFFFF" width="204.866" height="133.163"></rect> <path display="inline" fill="#FFFFFF" d="M296.867,271.611v139.801H508.68V271.611H296.867z M493.264,280.087l-90.499,77.042 l-90.479-77.042H493.264z M305.334,285.294l63.64,54.177l-63.64,59.895V285.294L305.334,285.294z M313.896,402.938l61.564-57.939 l27.302,23.238l27.316-23.242l61.569,57.943H313.896z M500.21,399.363l-63.64-59.896l63.64-54.176V399.363L500.21,399.363z"></path> <g display="inline"> <path fill="#FFFFFF" d="M3.318,306.555c-0.023,3.116,2.533,4.293,5.322,6.409l92.58,79.649c3.093-0.021,5.607-2.557,5.616-5.691 l0.005-36.658c21.602-6.063,54.945-9.218,90.378,11.062c54.096,30.985,58.29,94.874,58.29,94.874l1.209-6.598 c0,0,21.468-77.479-29.874-136.596c-43.008-49.533-96.158-51.371-120.008-49.217v-37.826c0.028-3.115-2.477-5.635-5.555-5.63 L9.28,299.879C6.462,302.193,3.318,303.448,3.318,306.555z"></path> </g> </g> <g display="none"> <path display="inline" fill="#FFFFFF" d="M255.96,134.749c-66.986,0-121.281,54.369-121.281,121.255 c0,66.967,54.295,121.273,121.281,121.273c66.96,0,121.314-54.307,121.314-121.273C377.274,189.117,322.92,134.749,255.96,134.749z M255.96,347.26c-50.325,0-91.176-40.838-91.176-91.256c0-50.352,40.851-91.203,91.176-91.203 c50.364,0,91.249,40.851,91.249,91.203C347.209,306.422,306.324,347.26,255.96,347.26z"></path> <path display="inline" fill="#FFFFFF" d="M435.928,256.003c0-5.569-0.348-11.066-0.808-16.528l64.509-31.258l-18.486-56.721 l-70.638,12.651c-5.669-9.48-12.118-18.507-19.438-26.694l33.89-63.276l-48.228-35.035l-49.585,51.583 c-10.094-4.323-20.72-7.628-31.604-10.166l-9.787-71.017h-59.611l-9.746,71.017c-10.992,2.538-21.525,5.843-31.585,10.213 l-49.599-51.63L86.959,74.178l33.836,63.276c-7.295,8.268-13.737,17.214-19.373,26.694l-70.664-12.651l-18.387,56.721 l64.468,31.258c-0.453,5.462-0.913,10.959-0.913,16.528c0,5.623,0.46,11.1,0.913,16.629l-64.468,31.258l18.387,56.68l70.664-12.742 c5.636,9.602,12.078,18.539,19.373,26.828l-33.836,63.232l48.252,35.109l49.599-51.684c10.06,4.396,20.593,7.738,31.585,10.15 l9.746,70.99h59.611l9.787-70.99c10.886-2.412,21.512-5.756,31.604-10.15l49.585,51.684l48.229-35.109l-33.891-63.287 c7.32-8.248,13.771-17.176,19.438-26.773l70.638,12.744l18.486-56.682l-64.509-31.258 C435.58,267.104,435.928,261.626,435.928,256.003z M255.96,395.758c-77.199,0-139.729-62.609-139.729-139.754 c0-77.159,62.529-139.642,139.729-139.642c77.126,0,139.722,62.483,139.722,139.642 C395.682,333.148,333.086,395.758,255.96,395.758z"></path> </g> <g display="none"> <rect x="248" y="382" display="inline" fill="#FFFFFF" width="135" height="11"></rect> <rect x="248" y="293" display="inline" fill="#FFFFFF" width="135" height="11"></rect> <rect x="248" y="153" display="inline" fill="#FFFFFF" width="135" height="11"></rect> <rect x="248" y="178" display="inline" fill="#FFFFFF" width="135" height="11"></rect> <rect x="248" y="267" display="inline" fill="#FFFFFF" width="135" height="11"></rect> <rect x="248" y="407" display="inline" fill="#FFFFFF" width="135" height="11"></rect> <path display="inline" fill="#FFFFFF" d="M392.872,77H412v381H100V77h21.531c0.766-2,2.702-6,5.051-12H89v404h334V65h-35.178 C390.165,71,392.109,75,392.872,77z"></path> <path display="inline" fill="#FFFFFF" d="M433.859,40h-69.971c-1.73-3-5.62-9-10.146-9h-47.138C299.533,31,294,25.147,294,18.067 v-1.689C294,10.233,288.832,5,282.697,5h-49.459C227.1,5,222,10.233,222,16.377v1.689C222,25.147,216.402,31,209.331,31h-48.694 c-4.528,0-8.416,6-10.147,9H78.145C68.328,40,60,48.043,60,57.853v431.249C60,498.914,68.328,507,78.145,507H433.86 c9.81,0,18.141-8.086,18.141-17.898V57.847C452,48.043,443.669,40,433.859,40z M257.973,11.91c4.604,0,8.342,3.738,8.342,8.345 s-3.736,8.346-8.342,8.346c-4.604,0-8.342-3.738-8.342-8.346C249.637,15.636,253.375,11.91,257.973,11.91z M441,489.102 c0,3.682-3.47,6.898-7.141,6.898H78.145C74.47,496,71,492.781,71,489.102V57.847C71,54.176,74.47,51,78.145,51h67.17 c-5.139,11-13.233,28.972-13.928,30.568c-1.015,2.358,0.021,4.432,2.109,4.432c1.026,0,246.346,0,247.372,0 c2.104,0,3.142-1.78,2.125-4.138c-0.205-0.475-1.072-2.862-2.314-4.862h0.002c-0.288-1-0.601-1.516-0.926-2.228 c-0.377-0.826-0.779-2.053-1.196-2.967c-0.916-2.009-1.911-3.805-2.945-6.805h-0.004c-2.231-4-4.597-10-6.541-14h64.793 c3.671,0,7.141,3.176,7.141,6.847L441,489.102L441,489.102z"></path> <path display="inline" fill="#FFFFFF" d="M205,359h-74v74h74V359z M194,422h-52v-52h52V422z"></path> <polygon display="inline" fill="#FFFFFF" points="205,278.895 194,290.002 194,307 142,307 142,256 194,256 194,258.579 205,247.476 205,244 131,244 131,318 205,318 "></polygon> <path display="inline" fill="#FFFFFF" d="M223.121,237.082l-46.384,46.389l-17.878-17.877c-2.167-2.169-5.683-2.169-7.856,0 c-2.169,2.17-2.169,5.684,0,7.854l25.734,25.728l54.243-54.233c2.17-2.177,2.17-5.684,0-7.859 C228.813,234.919,225.298,234.919,223.121,237.082z"></path> <polygon display="inline" fill="#FFFFFF" points="205,164.645 194,175.749 194,193 142,193 142,141 194,141 194,144.339 205,133.229 205,130 131,130 131,204 205,204 "></polygon> <path display="inline" fill="#FFFFFF" d="M158.859,151.341c-2.167-2.17-5.683-2.17-7.856,0c-2.169,2.169-2.169,5.688,0,7.858 l25.734,25.728l54.243-54.233c2.17-2.17,2.17-5.683,0-7.858c-2.167-2.17-5.683-2.17-7.859,0l-46.384,46.387L158.859,151.341z"></path> </g> <g display="none"> <title>Canvas 1</title> <g display="inline"> <title>Layer 1</title> <path fill="#FFFFFF" d="M220.057,377.939c6.595,6.603,6.595,17.299,0,23.908c-6.61,6.604-17.315,6.604-23.918,0 c-6.595-6.609-6.595-17.308,0-23.908C202.742,371.33,213.447,371.33,220.057,377.939 M284.172,232.083h146.549v208.535H284.172 V232.083z M369.412,462.48c6.604,6.596,6.604,17.3,0,23.901c-6.609,6.609-17.314,6.609-23.917,0 c-6.604-6.604-6.604-17.308,0-23.901C352.098,455.87,362.803,455.87,369.412,462.48 M267.273,350.436H81.279V46.088H334.91 v157.819h16.904V29.175C351.814,13.618,339.197,1,323.632,1H92.55C76.992,1,64.367,13.618,64.367,29.175v371.99 c0,15.565,12.625,28.182,28.183,28.182h174.724v50.727c0,15.557,12.619,28.175,28.178,28.175h124.002 c15.557,0,28.182-12.618,28.182-28.175v-247.99c0-15.565-12.625-28.176-28.182-28.176H295.449 c-15.559,0-28.176,12.61-28.176,28.176V350.436z"></path> </g> </g> <g display="none"> <g display="inline"> <g> <g> <g> <polygon fill="#FFFFFF" points="31.585,94.498 48.991,94.498 48.991,157.88 81.204,157.88 81.204,173.938 31.585,173.938 "></polygon> <g> <path fill="#FFFFFF" d="M88.886,120.084h16.724v53.827H88.886V120.084z M97.251,93.32c5.351,0,9.706,4.345,9.706,9.701 c0,5.362-4.355,9.701-9.706,9.701s-9.695-4.339-9.695-9.701C87.556,97.666,91.9,93.32,97.251,93.32"></path> </g> <polygon fill="#FFFFFF" points="175.532,94.498 192.239,94.498 192.239,141.972 211.182,120.057 231.684,120.057 209.747,144.984 231.216,173.938 210.204,173.938 192.458,147.327 192.239,147.327 192.239,173.938 175.532,173.938 "></polygon> <path fill="#FFFFFF" d="M114.86,120.091h16.057v7.352h0.22c2.238-4.235,7.693-8.689,15.832-8.689 c16.959,0,20.066,11.154,20.066,25.643v29.515h-16.717V147.74c0-6.252-0.11-14.275-8.701-14.275 c-8.694,0-10.03,6.813-10.03,13.819v26.627H114.86V120.091z"></path> <path fill="#FFFFFF" d="M266.882,140.74c0.108-5.571-4.233-10.262-10.265-10.262c-7.358,0-11.361,5.021-11.812,10.262H266.882z M281.048,164.589c-5.368,6.808-14.166,10.712-22.858,10.712c-16.728,0-30.102-11.152-30.102-28.43 c0-17.285,13.374-28.437,30.102-28.437c15.609,0,25.42,11.152,25.42,28.437v5.234h-38.803 c1.335,6.357,6.137,10.476,12.59,10.476c5.472,0,9.145-2.776,11.938-6.571L281.048,164.589z"></path> <path fill="#FFFFFF" d="M318.442,133.102c-8.36,0-13.376,5.581-13.376,13.703c0,8.156,5.016,13.716,13.376,13.716 c8.368,0,13.383-5.56,13.383-13.716C331.825,138.683,326.812,133.102,318.442,133.102 M347.223,173.9h-15.396v-7.139h-0.22 c-2.572,3.911-9.029,8.48-16.617,8.48c-16.06,0-26.649-11.592-26.649-27.985c0-15.051,9.372-28.875,24.757-28.875 c6.919,0,13.387,1.891,17.168,7.138h0.221V94.498h16.738L347.223,173.9L347.223,173.9z"></path> </g> <path fill="#FFFFFF" d="M468.394,77.812h-96.127c-4.586,0-8.325,3.652-8.325,8.128v96.537c0,4.499,3.739,8.134,8.325,8.134 h96.128c4.597,0,8.347-3.635,8.347-8.134V85.941C476.74,81.464,472.99,77.812,468.394,77.812z M397.409,173.938h-16.75v-53.832 h16.75V173.938z M389.041,112.743c-5.38,0-9.713-4.344-9.713-9.7c0-5.351,4.333-9.696,9.713-9.696c5.354,0,9.7,4.345,9.7,9.696 C398.741,108.399,394.396,112.743,389.041,112.743z M460.056,173.938h-16.718v-26.176c0-6.247-0.121-14.271-8.688-14.271 c-8.71,0-10.03,6.791-10.03,13.813v26.633h-16.717v-53.832h16.036v7.352h0.229c2.231-4.229,7.697-8.694,15.838-8.694 c16.925,0,20.049,11.152,20.049,25.649V173.938L460.056,173.938z"></path> </g> </g> </g> <g display="inline"> <polyline fill="none" points="3.356,437.335 507.682,437.335 507.682,248.421 3.356,248.421 "></polyline> <polyline fill="none" points="3.356,248.421 507.682,248.421 507.682,437.335 3.356,437.335 "></polyline> <polyline fill="none" points="3.356,248.421 507.682,248.421 507.682,437.335 3.356,437.335 "></polyline> <polyline fill="none" points="2.432,247.382 507.682,247.382 507.682,437.335 2.432,437.335 "></polyline> <polyline fill="#FFFFFF" points="3.356,248.421 509.265,248.421 509.265,438.367 3.356,438.367 "></polyline> <polyline fill="none" points="2.432,247.382 507.682,247.382 507.682,437.335 2.432,437.335 "></polyline> <path fill="#FFFFFF" d="M269.667,342.627c-3.399,0-5.839,1.112-8.326,2.238v25.609c2.388,0.235,3.74,0.235,5.994,0.235 c8.149,0,9.261-3.728,9.261-8.924V349.55C276.596,345.712,275.318,342.627,269.667,342.627 M215.579,341.23 c-5.658,0-6.944,3.098-6.944,6.936v2.148h13.874v-2.148C222.509,344.328,221.216,341.23,215.579,341.23 M110.798,367.891 c0,3.035,1.435,4.609,4.603,4.609c3.393,0,5.4-1.102,7.88-2.244v-6.066h-7.425C112.338,364.189,110.798,364.838,110.798,367.891 M322.283,342.627c-5.665,0-7.623,3.085-7.623,6.924v14.02c0,3.849,1.958,6.938,7.623,6.938c5.642,0,7.62-3.091,7.62-6.938v-14.02 C329.903,345.712,327.925,342.627,322.283,342.627 M83.061,383.602H66.42v-40.209h-8.309v-13.857h8.309v-8.326 c0-11.307,4.702-18.029,18.032-18.029h11.103v13.861H88.62c-5.197,0-5.538,1.936-5.538,5.549l-0.022,6.945h12.576l-1.468,13.857 H83.061V383.602z M139.928,383.713h-13.87l-0.599-3.504c-6.329,3.504-11.988,4.062-15.71,4.062 c-10.174,0-15.58-6.779-15.58-16.166c0-11.065,6.313-15.021,17.614-15.021h11.499v-2.392c0-5.647-0.649-7.303-9.343-7.303H99.706 l1.387-13.857h15.551c19.093,0,23.284,6.021,23.284,21.281V383.713L139.928,383.713z M187.083,344.408 c-8.635-1.479-11.109-1.807-15.261-1.807c-7.462,0-9.717,1.647-9.717,7.965v11.969c0,6.324,2.255,7.974,9.717,7.974 c4.152,0,6.626-0.331,15.261-1.81v13.512c-7.567,1.698-12.484,2.139-16.652,2.139c-17.856,0-24.96-9.381-24.96-22.932v-9.711 c0-13.561,7.104-22.965,24.96-22.965c4.168,0,9.084,0.451,16.652,2.15V344.408L187.083,344.408z M239.149,361.418h-30.514v1.117 c0,6.324,2.253,7.974,9.71,7.974c6.704,0,10.795-0.331,19.412-1.81v13.512c-8.309,1.698-12.637,2.139-20.786,2.139 c-17.861,0-24.972-9.381-24.972-22.932v-11.104c0-11.855,5.274-21.572,23.58-21.572c18.302,0,23.57,9.602,23.57,21.572V361.418 L239.149,361.418z M293.225,361.678c0,13.1-3.738,22.649-26.449,22.649c-8.195,0-13.011-0.726-22.062-2.116v-74.878l16.627-2.765 v26.188c3.597-1.332,8.25-2.014,12.483-2.014c16.64,0,19.4,7.451,19.4,19.424V361.678L293.225,361.678z M346.557,361.956 c0,11.302-4.674,22.256-24.22,22.256c-19.555,0-24.315-10.954-24.315-22.256v-10.909c0-11.3,4.762-22.26,24.315-22.26 c19.546,0,24.22,10.96,24.22,22.26V361.956z M399.82,361.956c0,11.302-4.673,22.256-24.206,22.256 c-19.557,0-24.317-10.954-24.317-22.256v-10.909c0-11.3,4.762-22.26,24.317-22.26c19.533,0,24.206,10.96,24.206,22.26V361.956z M454.517,383.602H436.48l-15.244-25.41v25.41h-16.644v-76.269l16.644-2.765v49.096l15.244-24.13h18.036l-16.651,26.329 L454.517,383.602z M375.561,342.627c-5.654,0-7.612,3.085-7.612,6.924v14.02c0,3.849,1.958,6.938,7.612,6.938 c5.642,0,7.644-3.091,7.644-6.938v-14.02C383.203,345.712,381.201,342.627,375.561,342.627"></path> <path fill="#FFFFFF" d="M464.007,374.121c2.794,0,5.038,2.281,5.038,5.127c0,2.896-2.244,5.156-5.061,5.156 c-2.804,0-5.08-2.26-5.08-5.156c0-2.846,2.276-5.127,5.08-5.127H464.007z M463.984,374.924c-2.254,0-4.103,1.93-4.103,4.324 c0,2.439,1.849,4.354,4.124,4.354c2.276,0.021,4.104-1.914,4.104-4.334c0-2.414-1.827-4.344-4.104-4.344H463.984z M463.029,382.236h-0.914v-5.726c0.473-0.063,0.936-0.137,1.617-0.137c0.868,0,1.44,0.188,1.781,0.435 c0.34,0.254,0.517,0.641,0.517,1.188c0,0.748-0.495,1.205-1.11,1.387v0.056c0.506,0.082,0.848,0.533,0.957,1.381 c0.131,0.895,0.274,1.236,0.363,1.416h-0.957c-0.143-0.18-0.275-0.707-0.385-1.455c-0.145-0.731-0.507-1.006-1.243-1.006h-0.626 V382.236z M463.029,379.07h0.657c0.748,0,1.388-0.275,1.388-0.985c0-0.505-0.364-1.001-1.388-1.001 c-0.297,0-0.506,0.023-0.657,0.045V379.07z"></path> </g> </g> <g display="none"> <g display="inline"> <path fill="#FFFFFF" d="M36.531,165.438v302.336c0,22.562,18.078,40.847,40.368,40.847h363.379 c22.28,0,40.366-18.284,40.366-40.847V165.438H36.531z M147.558,478.337H66.806v-80.743h80.752V478.337z M147.558,377.41H66.806 v-80.752h80.752V377.41z M147.558,276.475H66.806v-80.756h80.752V276.475z M248.481,478.337h-80.739v-80.743h80.739V478.337z M248.481,377.41h-80.739v-80.752h80.739V377.41z M248.481,276.475h-80.739v-80.756h80.739V276.475z M349.434,478.337h-80.752 v-80.743h80.752V478.337L349.434,478.337z M349.434,377.41h-80.752v-80.752h80.752V377.41L349.434,377.41z M349.434,276.475 h-80.752v-80.756h80.752V276.475L349.434,276.475z M450.369,478.337h-80.752v-80.743h80.752V478.337L450.369,478.337z M450.369,377.41h-80.752v-80.752h80.752V377.41L450.369,377.41z M450.369,276.475h-80.752v-80.756h80.752V276.475 L450.369,276.475z"></path> <path fill="#FFFFFF" d="M440.277,64.507h-65.623V19.085c0-8.365-6.788-15.142-15.129-15.142c-8.357,0-15.146,6.776-15.146,15.142 v45.422h-171.6V19.085c0-8.365-6.771-15.142-15.129-15.142c-8.366,0-15.138,6.776-15.138,15.142v45.422H76.898 c-22.29,0-40.368,18.28-40.368,40.839v34.863v5.05h444.114v-5.05v-34.863C480.645,82.787,462.559,64.507,440.277,64.507z M157.65,135.159c-16.715,0-30.276-13.561-30.276-30.28c0-11.203,6.095-20.956,15.138-26.196v26.196 c0,8.361,6.772,15.138,15.138,15.138c8.358,0,15.129-6.776,15.129-15.138V78.683c9.06,5.232,15.146,14.993,15.146,26.196 C187.926,121.598,174.374,135.159,157.65,135.159z M359.525,135.159c-16.732,0-30.293-13.561-30.293-30.28 c0-11.203,6.096-20.956,15.146-26.196v26.196c0,8.361,6.789,15.138,15.146,15.138c8.341,0,15.129-6.776,15.129-15.138V78.683 c9.052,5.232,15.146,14.993,15.146,26.196C389.801,121.598,376.24,135.159,359.525,135.159z"></path> </g> <path display="inline" fill="#FFFFFF" d="M190.324,256.271c2.23-2.527,4.878-4.654,7.307-6.995l14.852-13.75 c2.63-2.433,6.746-2.262,9.179,0.352c2.365,2.565,2.28,6.531-0.166,8.986l-0.422,0.408l-13.743,13.771 c-2.235,2.336-4.686,4.449-6.759,6.977l-6.392,7.391c-4.188,4.99-8.703,9.652-12.608,14.893l-12.028,15.455 c-3.927,5.197-7.634,10.586-11.458,15.881c-3.874,5.258-7.406,10.752-11.046,16.183c-7.262,10.815-14.183,22.055-20.619,33.112 l-0.597,0.881c-2.863,4.246-8.622,5.367-12.868,2.504c-1.266-0.842-2.262-1.983-2.962-3.239l-30.381-55.483 c-1.719-3.146-0.57-7.109,2.585-8.834c2.953-1.604,6.643-0.67,8.501,2.041l27.307,40.051c4.708-7.118,9.501-14.139,14.538-21.041 c3.945-5.405,7.769-10.889,11.948-16.123c4.133-5.276,8.142-10.649,12.374-15.828l12.967-15.381 c4.201-5.215,9.093-9.895,13.6-14.87L190.324,256.271z"></path> </g> <g display="none"> <path display="inline" fill="#FFFFFF" d="M3.503,508.51H509V354.057H3.503V508.51z M17.545,368.09h477.411v112.333H17.545V368.09z"></path> <path display="inline" fill="#FFFFFF" d="M3.503,333.271H509V178.818H3.503V333.271z M17.545,192.852h477.411v112.333H17.545 V192.852z"></path> <path display="inline" fill="#FFFFFF" d="M3.503,157.465H509V3.012H3.503V157.465z M17.545,17.055h477.411v112.333H17.545V17.055z"></path> <polygon display="inline" fill="#FFFFFF" points="120.889,217.008 87.754,250.14 63.036,225.425 55.736,217.566 35.518,237.783 87.754,289.457 154.031,223.75 133.81,203.524 "></polygon> <polygon display="inline" fill="#FFFFFF" points="120.889,392.245 87.754,425.379 63.036,400.664 55.736,393.361 35.518,413.021 87.754,465.264 154.031,398.988 133.81,379.328 "></polygon> <rect x="228.171" y="38.399" display="inline" fill="#FFFFFF" width="224.658" height="14.033"></rect> <rect x="171.999" y="66.484" display="inline" fill="#FFFFFF" width="280.831" height="14.034"></rect> <rect x="171.999" y="94.561" display="inline" fill="#FFFFFF" width="252.744" height="14.043"></rect> <rect x="228.171" y="213.636" display="inline" fill="#FFFFFF" width="224.658" height="14.044"></rect> <rect x="171.999" y="241.724" display="inline" fill="#FFFFFF" width="280.831" height="14.042"></rect> <rect x="171.999" y="269.8" display="inline" fill="#FFFFFF" width="252.744" height="14.042"></rect> <rect x="228.171" y="389.441" display="inline" fill="#FFFFFF" width="224.658" height="14.033"></rect> <rect x="171.999" y="417.519" display="inline" fill="#FFFFFF" width="280.831" height="14.045"></rect> <rect x="171.999" y="445.604" display="inline" fill="#FFFFFF" width="252.744" height="14.044"></rect> <polygon display="inline" fill="#FFFFFF" points="113.03,28.285 87.754,53.559 62.478,28.285 42.82,47.944 68.093,73.227 42.82,98.5 62.478,118.149 87.754,92.875 113.03,118.149 132.688,98.5 107.413,73.227 132.688,47.944 "></polygon> </g> <g display="none"> <g display="inline"> <rect x="62.978" y="60.486" fill="#FFFFFF" width="205.829" height="133.789"></rect> <path fill="#FFFFFF" d="M60.054,58.362v140.457h212.813V58.362H60.054z M257.376,66.876l-90.917,77.405L75.548,66.876H257.376z M68.569,72.107l63.935,54.43l-63.935,60.176V72.107z M77.173,190.304l61.853-58.211l27.433,23.349l27.438-23.354l61.86,58.217 L77.173,190.304L77.173,190.304z M264.357,186.713l-63.938-60.176l63.938-54.43V186.713z"></path> </g> <g display="inline"> <rect x="194.194" y="169.228" fill="#FFFFFF" width="205.835" height="133.792"></rect> <path fill="#FFFFFF" d="M191.272,167.109v140.458h212.821V167.109H191.272z M388.602,175.624l-90.918,77.405l-90.915-77.405 H388.602z M199.787,180.854l63.938,54.431l-63.938,60.175V180.854z M208.393,299.051l61.854-58.21l27.437,23.347l27.432-23.353 l61.855,58.216H208.393z M395.573,295.46l-63.938-60.175l63.938-54.431V295.46z"></path> </g> <g display="inline"> <rect x="300.107" y="277.307" fill="#FFFFFF" width="205.833" height="133.79"></rect> <path fill="#FFFFFF" d="M297.186,275.184v140.457H510V275.184H297.186z M494.51,283.695l-90.919,77.408l-90.914-77.408H494.51z M305.7,288.927l63.934,54.433L305.7,403.532V288.927z M314.304,407.124l61.855-58.209l27.432,23.349l27.437-23.354l61.854,58.215 H314.304L314.304,407.124z M501.486,403.532l-63.938-60.175l63.938-54.432V403.532z"></path> </g> <g display="inline"> <path fill="#FFFFFF" d="M2.261,310.289c-0.021,3.13,2.543,4.312,5.349,6.441l93.018,80.021c3.106-0.018,5.632-2.566,5.638-5.715 l0.003-36.835c21.707-6.095,55.208-9.261,90.805,11.112c54.351,31.135,58.57,95.322,58.57,95.322l1.209-6.627 c0,0,21.562-77.845-30.013-137.236c-43.212-49.771-96.611-51.615-120.577-49.451V229.32c0.027-3.131-2.483-5.663-5.578-5.657 L8.255,303.585C5.427,305.909,2.261,307.171,2.261,310.289z"></path> </g> </g> <g> <g> <path fill="#FFFFFF" d="M509.602,177.074l-99.299-99.301c-3.193-3.194-8.37-3.194-11.565,0l-49.649,49.65 c-1.533,1.533-2.394,3.613-2.394,5.782s0.86,4.249,2.394,5.782l4.953,4.953l-11.382,11.38c-7.389,7.386-18.854,9.402-28.528,5.011 c-9.07-4.117-19.152-6.292-29.16-6.292c-11.883,0-23.496,2.983-33.814,8.633c-4.303-1.06-8.719-1.603-13.179-1.603 c-6.45,0-12.785,1.113-18.829,3.31c-9.651,3.506-19.996,1.333-27.003-5.672l-20.437-20.438l2.434-2.434 c1.533-1.533,2.394-3.613,2.394-5.782s-0.861-4.249-2.394-5.782l-49.65-49.65c-3.195-3.194-8.371-3.194-11.565,0L2.395,185.155 c-3.193,3.194-3.193,8.371,0,11.564l49.648,49.65c1.534,1.534,3.613,2.395,5.783,2.395s4.248-0.861,5.783-2.395l2.961-2.961 l14.414,14.414c3.637,3.638,6.048,8.179,6.971,13.132c4.786,25.682,17.086,49.031,35.57,67.525l2.715,2.715 c-5.214,5.49-8.082,12.645-8.082,20.244c0,7.861,3.062,15.252,8.62,20.812c5.738,5.737,13.273,8.605,20.811,8.605 c0.491,0,0.98-0.013,1.471-0.038c-0.398,8.02,2.458,16.17,8.568,22.282c5.559,5.559,12.95,8.62,20.811,8.62 c0.219,0,0.437-0.011,0.656-0.017c-0.168,7.749,2.691,15.553,8.591,21.453c5.559,5.561,12.95,8.62,20.812,8.62 c7.861,0,15.251-3.062,20.811-8.62c0.468-0.468,0.909-0.952,1.34-1.441c2.895,1.009,5.957,1.546,9.052,1.546 c7.353,0,14.261-2.865,19.441-8.062c2.757-2.756,4.849-5.998,6.211-9.528l0.837,0.837c5.359,5.358,12.398,8.039,19.438,8.039 s14.077-2.681,19.437-8.039c2.848-2.849,4.987-6.211,6.344-9.878c4.797,3.488,10.476,5.235,16.158,5.235 c7.039,0,14.082-2.679,19.445-8.035c5.191-5.191,8.05-12.098,8.05-19.445c0-2.221-0.266-4.396-0.772-6.502 c5.236-1.064,10.049-3.635,13.91-7.501c5.19-5.19,8.05-12.094,8.05-19.437c0-5.785-1.782-11.293-5.073-15.91l6.56-6.561 c18.699-18.707,31.052-42.35,35.726-68.37c0.782-4.356,2.94-8.404,6.242-11.707l24.398-24.398l4.289,4.289 c1.597,1.597,3.689,2.395,5.782,2.395s4.187-0.798,5.783-2.395l49.65-49.65c1.532-1.533,2.394-3.613,2.394-5.782 S511.135,178.608,509.602,177.074z M57.827,229.023l-38.086-38.085l98.969-98.968l38.086,38.085L57.827,229.023z M156.835,370.688 c-5.097,5.096-13.392,5.098-18.493,0c-2.47-2.472-3.83-5.754-3.83-9.248c0-3.492,1.361-6.775,3.831-9.246 c2.549-2.549,5.896-3.823,9.245-3.823c3.348,0,6.698,1.274,9.246,3.823C161.932,357.292,161.932,365.588,156.835,370.688z M187.683,401.535c-2.468,2.471-5.751,3.829-9.246,3.829c-3.492,0-6.776-1.36-9.245-3.829c-5.099-5.099-5.099-13.395,0-18.493 c2.549-2.55,5.896-3.824,9.246-3.824c3.347,0,6.697,1.274,9.245,3.824C192.783,388.14,192.783,396.437,187.683,401.535z M217.741,431.592c-2.47,2.47-5.753,3.83-9.245,3.83c-3.493,0-6.777-1.361-9.246-3.83c-5.099-5.099-5.099-13.395,0-18.493 c2.549-2.549,5.896-3.824,9.246-3.824c3.347,0,6.697,1.275,9.245,3.824C222.84,418.197,222.84,426.493,217.741,431.592z M356.628,368.82c-2.102,2.104-4.897,3.263-7.869,3.263s-5.767-1.159-7.873-3.269l-79.329-79.311 c-3.196-3.193-8.372-3.192-11.565,0.002c-3.192,3.192-3.191,8.371,0.002,11.563l85.451,85.441c2.103,2.103,3.26,4.897,3.26,7.872 c0,2.98-1.158,5.779-3.257,7.878c-4.347,4.343-11.416,4.344-15.756,0.003l-14.416-14.416c-0.08-0.083-0.158-0.167-0.241-0.249 c-0.024-0.024-0.051-0.045-0.075-0.069l-66.267-66.266c-3.195-3.193-8.371-3.193-11.565,0c-3.194,3.192-3.194,8.371,0,11.563 l66.479,66.479c2.032,2.083,3.151,4.839,3.151,7.763c0,2.975-1.16,5.771-3.262,7.872c-4.338,4.341-11.4,4.341-15.742,0 l-72.085-72.085c-3.195-3.194-8.371-3.194-11.565,0c-3.194,3.192-3.194,8.371,0,11.563l53.434,53.435 c0.015,0.016,0.027,0.032,0.043,0.046c2.101,2.098,3.257,4.888,3.257,7.859c0,2.973-1.158,5.769-3.269,7.88 c-2.099,2.104-4.893,3.263-7.87,3.263c-0.719,0-1.422-0.074-2.11-0.204c1.323-8.913-1.436-18.319-8.282-25.166 c-5.559-5.559-12.95-8.621-20.811-8.621c-0.219,0-0.437,0.012-0.656,0.017c0.168-7.749-2.69-15.552-8.591-21.453 c-5.56-5.558-12.95-8.62-20.812-8.62c-0.492,0-0.981,0.012-1.469,0.037c0.393-8.015-2.463-16.158-8.57-22.267 c-7.434-7.433-17.884-10.044-27.444-7.847l-5.864-5.864c-16.14-16.147-26.878-36.534-31.057-58.96 c-1.531-8.213-5.502-15.717-11.483-21.699L78.136,231.84l82.009-82.01l20.438,20.438c7.856,7.856,18.552,12.06,29.507,12.06 c4.906,0,9.867-0.844,14.646-2.581c2.318-0.843,4.715-1.448,7.144-1.832l-50.632,50.633c-6.195,6.194-9.607,14.43-9.607,23.191 c0,8.759,3.412,16.996,9.606,23.189c6.394,6.395,14.79,9.591,23.19,9.59c8.398,0,16.797-3.198,23.192-9.59l25.43-25.429 l6.883,6.888c0.002,0.002,0.003,0.003,0.006,0.005l0.285,0.286l0.275,0.275c0.001,0,0.003,0.002,0.005,0.004l0.005,0.004 c0.079,0.078,0.156,0.152,0.232,0.227l95.881,95.881c2.104,2.102,3.26,4.897,3.26,7.871 C359.891,363.919,358.734,366.715,356.628,368.82z M408.135,246.833c-5.674,5.675-9.4,12.723-10.774,20.38 c-4.08,22.721-14.866,43.364-31.192,59.698l-6.284,6.285l-51.73-51.731c1.124,0.084,2.253,0.139,3.39,0.139 c5.238,0,10.599-0.918,15.935-3.102c4.18-1.709,6.182-6.484,4.472-10.664c-1.71-4.178-6.481-6.182-10.664-4.471 c-21.046,8.61-46.277-15.121-49.087-17.855c-0.047-0.046-0.094-0.091-0.142-0.135l-0.29-0.29 c-0.001-0.001-0.002-0.001-0.003-0.002l-0.254-0.252c0-0.001-0.002-0.003-0.004-0.004l-6.885-6.889l7.807-7.807 c3.195-3.194,3.195-8.371,0.001-11.565c-3.194-3.192-8.371-3.193-11.563,0l-13.571,13.57c-0.005,0.005-0.011,0.01-0.016,0.015 c-0.005,0.005-0.01,0.011-0.015,0.016l-31.2,31.2c-6.412,6.41-16.842,6.408-23.252,0c-3.105-3.105-4.815-7.234-4.815-11.626 s1.71-8.521,4.816-11.626l53.852-53.854c2.996-2.995,6.326-5.63,9.905-7.837c8.503-5.256,18.324-8.034,28.401-8.034 c7.692,0,15.438,1.67,22.402,4.831c15.842,7.188,34.671,3.839,46.851-8.338l11.384-11.381l66.928,66.929L408.135,246.833z M454.169,220.943l-87.735-87.736l38.087-38.085l87.735,87.735L454.169,220.943z"></path> </g> </g> <g> <g> <circle fill="#FFFFFF" cx="462.407" cy="189.109" r="8.177"></circle> </g> </g> <g> <g> <circle fill="#FFFFFF" cx="53.567" cy="197.188" r="8.177"></circle> </g> </g> </svg>
